<?xml version="1.0" encoding="UTF-8"?>
<svg width="375px" height="375px" viewBox="0 0 375 375" version="1.1" xmlns="http://www.w3.org/2000/svg" xmlns:xlink="http://www.w3.org/1999/xlink">
    <!-- Generator: Sketch 53.1 (72631) - https://sketchapp.com -->
    <title>Group 2 Copy</title>
    <desc>Created with Sketch.</desc>
    <g id="Page-1" stroke="none" stroke-width="1" fill="none" fill-rule="evenodd">
        <g id="Group-2-Copy" fill="#FFFFFF">
            <path d="M187.5,375 C83.9466094,375 0,291.053391 0,187.5 C0,83.9466094 83.9466094,0 187.5,0 C291.053391,0 375,83.9466094 375,187.5 C375,291.053391 291.053391,375 187.5,375 Z M163.043478,187.492894 C163.043478,193.474002 165.247637,199.117173 169.02928,203.483915 C170.182081,205.791725 171.707053,207.924332 173.575048,209.792327 L237.004789,273.222068 C246.635778,282.853057 262.032696,282.764264 271.583213,273.213747 C281.040992,263.755968 281.138633,248.182423 271.591534,238.635323 L211.956522,179.000311 L211.956522,73.3766711 C211.956522,59.9745535 201.006575,48.9130435 187.5,48.9130435 C174.116336,48.9130435 163.043478,59.8732715 163.043478,73.3766711 L163.043478,187.492894 Z" id="Oval-Copy-2"></path>
        </g>
    </g>
</svg>